<?xml version="1.0" encoding="UTF-8" standalone="no"?>
<svg
   xmlns:dc="http://purl.org/dc/elements/1.1/"
   xmlns:cc="http://creativecommons.org/ns#"
   xmlns:rdf="http://www.w3.org/1999/02/22-rdf-syntax-ns#"
   xmlns:svg="http://www.w3.org/2000/svg"
   xmlns="http://www.w3.org/2000/svg"
   version="1.1"
   id="svg2"
   xml:space="preserve"
   width="653.33289"
   height="106.66666"
   viewBox="0 0 653.33289 106.66666"><metadata
     id="metadata8"><rdf:RDF><cc:Work
         rdf:about=""><dc:format>image/svg+xml</dc:format><dc:type
           rdf:resource="http://purl.org/dc/dcmitype/StillImage" /><dc:title></dc:title></cc:Work></rdf:RDF></metadata><defs
     id="defs6"><clipPath
       clipPathUnits="userSpaceOnUse"
       id="clipPath18"><path
         d="M 0,1080 H 1920 V 0 H 0 Z"
         id="path16" /></clipPath></defs><g
     id="g10"
     transform="matrix(1.3333333,0,0,-1.3333333,-953.40039,773.33331)"><g
       id="g12"><g
         id="g14"
         clip-path="url(#clipPath18)"><g
           id="g20"
           transform="translate(1202.998,500.7007)"><path
             d="m 0,0 2.052,15.728 c -15.588,1.329 -23.536,10.488 -23.536,23.946 0,13.366 8.66,21.838 23.536,23.087 L -0.001,78.5 C -25.109,76.328 -39.406,59.298 -39.406,39.674 -39.406,20.066 -24.669,1.821 0,0"
             style="fill:#000000;fill-opacity:1;fill-rule:nonzero;stroke:none"
             id="path22" /></g><g
           id="g24"
           transform="translate(1122.1036,500.7007)"><path
             d="m 0,0 c 25.108,2.172 39.405,19.202 39.405,38.826 0,19.608 -14.737,37.853 -39.406,39.674 L -2.053,62.772 C 13.535,61.443 21.484,52.284 21.484,38.826 21.484,25.46 12.823,16.988 -2.053,15.739 Z"
             style="fill:#000000;fill-opacity:1;fill-rule:nonzero;stroke:none"
             id="path26" /></g><g
           id="g28"
           transform="translate(1053.9243,500)"><path
             d="m 0,0 c 8.158,0 18.31,1.245 28.159,6.083 l 0.967,17.733 C 16.604,17.28 9.32,16.055 1.576,16.055 c -18.088,0 -27.493,8.181 -27.493,23.846 0,16.062 9.13,24.439 26.508,24.439 8.46,0 15.626,-1.539 27.265,-7.899 L 26.777,73.815 C 16.37,79.069 7.64,79.901 -0.296,79.901 -27.637,79.901 -44.728,64.528 -44.728,40 -44.728,15.372 -27.537,0 0,0"
             style="fill:#000000;fill-opacity:1;fill-rule:nonzero;stroke:none"
             id="path30" /></g><path
           d="m 970.694,501.773 h 18.319 v 76.453 h -18.319 z"
           style="fill:#000000;fill-opacity:1;fill-rule:nonzero;stroke:none"
           id="path32" /><g
           id="g34"
           transform="translate(862.1137,501.7735)"><path
             d="M 0,0 H 18.319 V 50.518 L 61.551,0 H 79.013 V 76.453 H 60.694 V 26.031 L 17.461,76.453 H 0 Z"
             style="fill:#000000;fill-opacity:1;fill-rule:nonzero;stroke:none"
             id="path36" /></g><path
           d="m 813.494,501.773 h 18.319 v 76.453 h -18.319 z"
           style="fill:#000000;fill-opacity:1;fill-rule:nonzero;stroke:none"
           id="path38" /><g
           id="g40"
           transform="translate(752.4277,500)"><path
             d="m 0,0 c 22.064,0 34.383,8.73 34.383,24.235 0,19.584 -19.983,22.885 -35.473,25.508 -10.204,1.728 -18.362,3.157 -18.362,8.189 0,4.394 5.385,6.506 17.246,6.506 10.16,0 19.809,-1.538 32.967,-6.388 l -1.07,17.128 C 17.084,79.073 7.437,80 -2.403,80 -25.322,80 -37.276,72.676 -37.377,58.232 -37.478,39.239 -18.099,35.879 -3.089,33.311 c 10.695,-1.864 19.35,-3.437 19.35,-9.371 0,-6.301 -8.481,-7.688 -16.162,-7.688 -12.577,0 -22.349,3.405 -37.353,10.823 l 1.175,-18.58 C -23.703,2.098 -10.344,0 0,0"
             style="fill:#000000;fill-opacity:1;fill-rule:nonzero;stroke:none"
             id="path42" /></g></g></g></g></svg>
